<?xml version="1.0" encoding="UTF-8" standalone="no"?>
<svg
   height="512pt"
   viewBox="0 0 800 800"
   width="512pt"
   version="1.1"
   id="svg162"
   xmlns="http://www.w3.org/2000/svg">
  <defs
     id="defs166">
    <clipPath id="clipPath282">
      <circle
         style="fill:#ffffff;stroke:#800000;stroke-width:13.8904"
         id="circle284"
         cx="400"
         cy="400"
         r="293.53296" />
    </clipPath>
  </defs>
  <circle
     style="fill:#00bef6;fill-opacity:1;stroke:none;stroke-width:12.2368"
     id="path297"
     cx="400"
     cy="400"
     r="400" />
  <rect
     width="800"
     height="800"
     fill="#000000"
     id="rect152"
     clip-path="url(#clipPath282)"
     x="0"
     y="0"
     transform="matrix(1.2729493,0,0,1.2729493,-109.17973,-109.17973)" />
  <path
     id="path2770"
     style="fill:#00bef6;stroke-width:14.561"
     d="M 399.99992,695.50155 353.31051,480.97036 144.08687,548.311 306.62104,400.20441 144.08692,252.80942 l 209.22361,66.42464 46.68953,-214.73564 46.68941,214.53121 209.22364,-67.34064 -162.53416,148.10657 162.53411,147.395 -209.22361,-66.42462 z" />
  <rect
     style="fill:#000000;fill-opacity:1;stroke:none;stroke-width:12.2628"
     id="rect2952"
     width="215.21164"
     height="12.569341"
     x="292.39417"
     y="393.71533" />
  <rect
     style="fill:#000000;fill-opacity:1;stroke:none;stroke-width:12.2628"
     id="rect2952-9"
     width="215.21164"
     height="12.569341"
     x="-254.22302"
     y="540.06995"
     transform="rotate(-60.02171)" />
  <rect
     style="fill:#000000;fill-opacity:1;stroke:none;stroke-width:12.2628"
     id="rect2952-9-6"
     width="215.21164"
     height="12.569341"
     x="438.74881"
     y="140.33252"
     transform="matrix(0.49967182,0.8662148,0.8662148,-0.49967182,0,0)" />
</svg>
