<?xml version="1.0" encoding="UTF-8" standalone="no"?>
<!-- Created with Inkscape (http://www.inkscape.org/) -->

<svg
   width="150mm"
   height="150mm"
   viewBox="0 0 144.89655 142.65147"
   version="1.1"
   id="svg1"
   inkscape:version="1.3 (0e150ed6c4, 2023-07-21)"
   sodipodi:docname="tome.svg"
   inkscape:export-filename="tome.png"
   inkscape:export-xdpi="88.061546"
   inkscape:export-ydpi="88.061546"
   xml:space="preserve"
   xmlns:inkscape="http://www.inkscape.org/namespaces/inkscape"
   xmlns:sodipodi="http://sodipodi.sourceforge.net/DTD/sodipodi-0.dtd"
   xmlns="http://www.w3.org/2000/svg"
   xmlns:svg="http://www.w3.org/2000/svg"><sodipodi:namedview
     id="namedview1"
     pagecolor="#505050"
     bordercolor="#ffffff"
     borderopacity="1"
     inkscape:showpageshadow="0"
     inkscape:pageopacity="0"
     inkscape:pagecheckerboard="1"
     inkscape:deskcolor="#d1d1d1"
     inkscape:document-units="mm"
     inkscape:zoom="0.5"
     inkscape:cx="84"
     inkscape:cy="227"
     inkscape:window-width="1536"
     inkscape:window-height="801"
     inkscape:window-x="-8"
     inkscape:window-y="-8"
     inkscape:window-maximized="1"
     inkscape:current-layer="layer1" /><defs
     id="defs1" /><g
     inkscape:label="Layer 1"
     inkscape:groupmode="layer"
     id="layer1"
     transform="translate(-36.54734,-77.956535)"><ellipse
       style="fill:#fc9e00;fill-opacity:1;stroke:#000000;stroke-width:0;stroke-dasharray:none;stroke-opacity:0"
       id="path55"
       cx="108.99561"
       cy="149.28227"
       rx="72.448273"
       ry="72.448273" /><g
       id="g127"
       transform="matrix(0.91016121,0,0,0.91016121,9.2936529,11.106459)"
       style="fill:#1a1a1a;fill-opacity:1"><g
         id="g126"
         style="fill:#1a1a1a;fill-opacity:1"><path
           d="m 106.55838,128.06039 v 60.32299 c -14.803424,7.44893 -26.371897,8.57957 -36.498719,3.5582 -6.258923,-3.10926 -18.65371,-5.73634 -22.363367,-6.48456 v -60.50589 c 4.166773,0.84798 15.524269,3.32541 21.09753,6.11876 10.654242,5.30403 22.697401,4.37292 37.764556,-3.0095 z"
           id="path2"
           style="fill:#1a1a1a;fill-opacity:1;stroke-width:1.70975" /><path
           d="m 150.29255,131.07703 c 5.60842,-2.77672 16.96592,-5.27078 21.09753,-6.11876 v 60.50589 c -3.70966,0.74822 -16.10444,3.32541 -22.36337,6.48456 -10.07406,4.98812 -21.69529,3.89073 -36.49871,-3.5582 v -60.32299 c 8.79064,4.22327 16.38574,6.31828 23.36549,6.31828 a 30.239776,28.598555 0 0 0 14.39906,-3.30878 z"
           id="path3"
           style="fill:#1a1a1a;fill-opacity:1;stroke-width:1.70975" /></g><path
         d="m 71.673146,124.6636 c -5.520527,-2.61045 -15.823142,-4.88836 -20.693148,-5.88599 l 4.114018,-3.17577 H 164.00996 l 4.09642,3.17577 c -4.90517,0.99763 -15.17262,3.32542 -20.69315,5.88599 -10.24988,4.98811 -22.06449,3.70783 -37.21954,-3.74109 a 1.2834323,1.2137758 0 0 0 -1.23067,0 c -15.278135,7.44892 -27.057585,8.64607 -37.289874,3.74109 z"
         id="path4-9"
         style="fill:#1a1a1a;fill-opacity:1;stroke-width:1.70975" /></g></g></svg>